# xmcd CD database file
#
# Track frame offsets:
#	150
#	16790
#	37965
#	62852
#	76452
#	97990
#	118107
#	134057
#	154792
#	171677
#
# Disc length: 2498 seconds
#
# Revision: 2
# Processed by: cddbd v1.5.2PL0 Copyright (c) Steve Scherf et al.
# Submitted via: CDex 1.70beta2
#
DISCID=8409c00a
DTITLE=konami - KONAMI SHOOTING BATTLE Ⅱ
DYEAR=1995
DGENRE=Soundtrack
TTITLE0=PRELUDE OF LEGEND
TTITLE1=CROSS POINT
TTITLE2=LOOK FOR A FORTRESS
TTITLE3=TRY TO STAR
TTITLE4=CORONY
TTITLE5=CRYSTAL CLEAR
TTITLE6=FIRST ATTACK
TTITLE7=GIVE MY HEART TO YOU
TTITLE8=腎臓ステージ
TTITLE9=FARAWAY/trigon
EXTD=YEAR: 1995
EXTT0=
EXTT1=
EXTT2=
EXTT3=
EXTT4=
EXTT5=
EXTT6=
EXTT7=
EXTT8=
EXTT9=
PLAYORDER=
